<svg xmlns="http://www.w3.org/2000/svg" width="32" height="32" viewBox="0 0 24 24" fill="none">
  <defs>
    <linearGradient id="potret-petal" x1="4" y1="2" x2="20" y2="22" gradientUnits="userSpaceOnUse">
      <stop stop-color="#FFB23E"/>
      <stop offset="0.5" stop-color="#FF8A12"/>
      <stop offset="1" stop-color="#F25C05"/>
    </linearGradient>
  </defs>
  <rect width="24" height="24" rx="5" fill="#0b0a0c"/>
  <g>
    <ellipse cx="12" cy="6.4" rx="2.05" ry="4.7" fill="url(#potret-petal)" transform="rotate(0 12 12)"/>
    <ellipse cx="12" cy="6.4" rx="2.05" ry="4.7" fill="url(#potret-petal)" transform="rotate(45 12 12)"/>
    <ellipse cx="12" cy="6.4" rx="2.05" ry="4.7" fill="url(#potret-petal)" transform="rotate(90 12 12)"/>
    <ellipse cx="12" cy="6.4" rx="2.05" ry="4.7" fill="url(#potret-petal)" transform="rotate(135 12 12)"/>
    <ellipse cx="12" cy="6.4" rx="2.05" ry="4.7" fill="url(#potret-petal)" transform="rotate(180 12 12)"/>
    <ellipse cx="12" cy="6.4" rx="2.05" ry="4.7" fill="url(#potret-petal)" transform="rotate(225 12 12)"/>
    <ellipse cx="12" cy="6.4" rx="2.05" ry="4.7" fill="url(#potret-petal)" transform="rotate(270 12 12)"/>
    <ellipse cx="12" cy="6.4" rx="2.05" ry="4.7" fill="url(#potret-petal)" transform="rotate(315 12 12)"/>
  </g>
  <circle cx="12" cy="12" r="2.1" fill="#0b0a0c"/>
</svg>
